<svg width="14" height="15" viewBox="0 0 14 15" fill="none" xmlns="http://www.w3.org/2000/svg">
<g id="Instagram Icon" clip-path="url(#clip0_29_139)">
<path id="Path 38" d="M7.00467 4.8042C6.53426 4.80461 6.07455 4.94445 5.68359 5.20606C5.29263 5.46766 4.98798 5.83927 4.80816 6.27395C4.62833 6.70863 4.58139 7.18686 4.67326 7.64821C4.76514 8.10956 4.99169 8.53333 5.32432 8.86596C5.65695 9.19859 6.08071 9.42514 6.54206 9.51701C7.0034 9.60889 7.48165 9.56195 7.91633 9.38212C8.35101 9.20229 8.72264 8.89766 8.98424 8.5067C9.24584 8.11574 9.38568 7.65602 9.38609 7.18561C9.38609 6.87288 9.32448 6.56321 9.2048 6.27428C9.08513 5.98536 8.90972 5.72283 8.68858 5.5017C8.46745 5.28056 8.20494 5.10515 7.91601 4.98547C7.62709 4.8658 7.3174 4.8042 7.00467 4.8042Z" fill="#6C513C"/>
<path id="Path 39" d="M13.6585 2.14977C13.5173 1.7802 13.2998 1.44457 13.02 1.16484C12.7403 0.885101 12.4047 0.667557 12.0351 0.526413C11.5284 0.338165 10.9928 0.239509 10.4523 0.234856C9.55268 0.194246 9.28194 0.183838 7.0005 0.183838C4.71906 0.183838 4.45249 0.194246 3.55387 0.234856C3.01174 0.240186 2.47459 0.338812 1.96592 0.526413C1.5962 0.664251 1.26157 0.882226 0.986071 1.16471C0.701708 1.44069 0.483514 1.77747 0.347792 2.14977C0.160394 2.65686 0.0600558 3.19197 0.0510233 3.73251C0.0114547 4.63217 0.0010376 4.90395 0.0010376 7.18435C0.0010376 9.46475 0.0114547 9.73237 0.0510233 10.632C0.0596497 11.1743 0.159992 11.7112 0.347792 12.22C0.483496 12.5908 0.701746 12.9258 0.986071 13.1998C1.25895 13.4855 1.59436 13.704 1.96592 13.8381C2.47407 14.0282 3.01136 14.1286 3.55387 14.1349C4.45353 14.1755 4.72426 14.1849 7.0005 14.1849C9.27674 14.1849 9.55372 14.1755 10.4523 14.1349C10.9932 14.1293 11.5289 14.0288 12.0351 13.8381C12.4083 13.7041 12.7454 13.4857 13.0201 13.1998C13.3025 12.9243 13.5205 12.5897 13.6585 12.22C13.8461 11.7113 13.9447 11.1742 13.95 10.632C13.9948 9.73237 14 9.46579 14 7.18435C14 4.90291 14 4.63113 13.95 3.73251C13.9443 3.19211 13.8456 2.65674 13.6585 2.14977ZM6.99948 10.8476C6.27476 10.8472 5.56641 10.6318 4.96405 10.2289C4.3617 9.8259 3.89238 9.25335 3.61542 8.58363C3.33846 7.91392 3.26632 7.17712 3.40811 6.46641C3.5499 5.75569 3.89927 5.10298 4.41202 4.59081C4.92476 4.07865 5.57784 3.73003 6.28872 3.58905C6.9996 3.44807 7.73633 3.52106 8.40573 3.79878C9.07512 4.0765 9.64715 4.54647 10.0494 5.14928C10.4517 5.7521 10.6662 6.46068 10.6658 7.1854C10.666 7.66658 10.5712 8.14305 10.387 8.58757C10.2028 9.0321 9.93276 9.43593 9.59232 9.77598C9.25189 10.116 8.84773 10.3856 8.40299 10.5693C7.95826 10.753 7.48168 10.8472 7.0005 10.8465L6.99948 10.8476ZM11.2375 3.80332C11.068 3.80332 10.9023 3.75306 10.7614 3.65889C10.6205 3.56473 10.5106 3.43089 10.4457 3.27429C10.3809 3.1177 10.3639 2.94539 10.397 2.77916C10.43 2.61292 10.5117 2.46022 10.6315 2.34037C10.7514 2.22052 10.904 2.13891 11.0703 2.10584C11.2365 2.07278 11.4088 2.08974 11.5654 2.1546C11.722 2.21947 11.8558 2.3293 11.95 2.47023C12.0442 2.61116 12.0944 2.77686 12.0944 2.94635C12.0936 3.1732 12.0032 3.39054 11.8429 3.55104C11.6826 3.71155 11.4654 3.80223 11.2385 3.80332H11.2375Z" fill="#6C513C"/>
</g>
<defs>
<clipPath id="clip0_29_139">
<rect width="14" height="14" fill="white" transform="translate(0 0.185059)"/>
</clipPath>
</defs>
</svg>
