<svg width="139" height="18" viewBox="0 0 139 18" fill="none" xmlns="http://www.w3.org/2000/svg">
<g id="N&#38;O Logo">
<path id="Vector" d="M10.0819 8.77574V13.7238H7.49417V9.32254C7.49417 9.01392 7.72665 6.71266 5.85785 6.62209C4.94401 6.56674 3.30769 7.04142 3.30769 9.43324V13.7238H0.737854V4.59591H2.72469L3.05553 5.70964H3.38637C3.7959 5.25341 4.70974 4.50366 6.34427 4.50366C8.85509 4.50366 10.0819 6.25644 10.0819 8.77574Z" fill="#6C513C"/>
<path id="Vector_2" d="M32.9527 4.59521V13.7231H31.007L30.6565 12.7016H30.4044C30.0145 13.1578 29.1579 13.8153 27.5609 13.8153C24.9732 13.8153 23.648 12.0978 23.648 9.54325V4.59521H26.2966V8.99477C26.2966 10.1269 26.3949 11.6969 28.067 11.6969C28.9236 11.6969 30.3257 11.2776 30.3257 8.88575V4.59521H32.9545H32.9527Z" fill="#6C513C"/>
<path id="Vector_3" d="M44.5317 4.59521V12.8106C44.5317 15.2763 43.1887 17.4668 39.8606 17.4668C36.7453 17.4668 35.0518 15.5497 35.0518 14.1072H37.4857C37.4857 14.1072 37.8559 15.293 39.7837 15.293C41.4182 15.293 42.0996 14.4544 42.0996 13.1763V12.8291C41.4772 13.4883 40.601 13.817 39.5888 13.817C37.1173 13.817 35.0535 11.9166 35.0535 9.16082C35.0535 6.40502 37.1173 4.50464 39.5888 4.50464C40.6403 4.50464 41.4576 4.85184 42.062 5.47244H42.3535L42.6253 4.59689H44.5335L44.5317 4.59521ZM42.0978 9.15914C42.0978 7.64454 41.2215 6.74887 39.9572 6.74887C38.7697 6.74887 37.5822 7.55229 37.5822 9.15914C37.5822 10.766 38.7697 11.5694 39.9572 11.5694C41.2215 11.5694 42.0978 10.6737 42.0978 9.15914Z" fill="#6C513C"/>
<path id="Vector_4" d="M56.2187 8.77439V13.7224H53.6095V9.32119C53.6095 8.42719 53.7651 6.62074 52.0125 6.62074C51.1559 6.62074 49.5017 7.04006 49.5017 9.43189V13.7224H46.8925V0.760254H49.3658V5.54223H49.6966C50.1634 5.08601 51.0593 4.50231 52.4989 4.50231C55.0098 4.50231 56.2169 6.25509 56.2169 8.77439H56.2187Z" fill="#6C513C"/>
<path id="Vector_5" d="M65.1442 13.0474C65.1442 13.0474 64.3269 13.8139 62.8283 13.8139C60.9595 13.8139 59.3429 12.6264 59.3429 10.783V6.54782H57.3972V4.75814H58.37C59.0317 4.75814 59.4788 4.33882 59.4788 3.68131V1.85474H61.834V4.59377H64.2876V6.54782H61.834V10.6371C61.834 11.2577 62.3794 11.7324 63.0805 11.7324C63.6653 11.7324 64.2107 11.422 64.2107 11.422L65.1442 13.0474Z" fill="#6C513C"/>
<path id="Vector_6" d="M69.9772 6.43856C69.16 6.43856 68.8094 6.82267 68.8094 7.20509C68.8094 7.82569 69.6857 8.00852 70.2687 8.11754C72.0016 8.46474 73.7542 8.95787 73.7542 10.8935C73.7542 12.8291 72.1 13.8153 70.0935 13.8153C67.8545 13.8153 66.1216 12.5372 66.0053 10.6016H68.3999C68.4589 11.1501 68.847 11.863 70.0345 11.863C71.027 11.863 71.2613 11.3698 71.2613 10.9857C71.2613 10.3114 70.5799 10.1102 69.9182 9.96257C68.7701 9.72607 66.2968 9.2883 66.2968 7.20677C66.2968 5.41709 68.1263 4.50464 70.0148 4.50464C72.1948 4.50464 73.6344 5.74584 73.7524 7.28057H71.3578C71.2809 6.97027 70.968 6.44024 69.9772 6.44024V6.43856Z" fill="#6C513C"/>
<path id="Vector_7" d="M11.9581 9.17829C11.9581 6.25644 14.3724 4.50366 16.9798 4.50366C19.5871 4.50366 21.9048 6.27657 21.9048 9.14139C21.9048 12.0062 19.5299 13.816 16.9011 13.816C14.2722 13.816 11.9563 12.0431 11.9563 9.17829H11.9581ZM19.3564 9.15984C19.3564 7.73582 18.4605 6.62209 16.9815 6.62209C15.5026 6.62209 14.5101 7.73582 14.5101 9.15984C14.5101 10.5839 15.5026 11.6976 16.9815 11.6976C18.4605 11.6976 19.3564 10.5839 19.3564 9.15984Z" fill="#6C513C"/>
<path id="Vector_8" d="M11.9582 15.0476V17.4746H21.9067V15.0476H11.9582Z" fill="#6C513C"/>
<path id="Vector_9" d="M117.719 8.77574V13.7238H115.129V9.32254C115.129 9.01392 115.363 6.71266 113.495 6.62209C112.581 6.56674 110.944 7.04142 110.944 9.43324V13.7238H108.375V4.59591H110.361L110.692 5.70964H111.023C111.433 5.25341 112.346 4.50366 113.981 4.50366C116.492 4.50366 117.719 6.25644 117.719 8.77574Z" fill="#6C513C"/>
<path id="Vector_10" d="M129.153 9.85355H122.048C122.341 11.2407 123.546 11.7522 124.598 11.7522C125.921 11.7522 126.488 10.9857 126.488 10.9857H128.94C128.2 12.8106 126.429 13.817 124.521 13.817C121.892 13.817 119.596 11.9368 119.596 9.0887C119.596 6.24064 121.874 4.50464 124.442 4.50464C127.01 4.50464 129.466 6.12994 129.153 9.85522V9.85355ZM122.203 8.00852H126.583C126.291 6.93169 125.492 6.49392 124.519 6.49392C123.45 6.49392 122.591 7.06084 122.203 8.00852Z" fill="#6C513C"/>
<path id="Vector_11" d="M134.513 6.43856C133.696 6.43856 133.346 6.82267 133.346 7.20509C133.346 7.82569 134.222 8.00852 134.805 8.11754C136.54 8.46474 138.29 8.95787 138.29 10.8935C138.29 12.8291 136.636 13.8153 134.63 13.8153C132.391 13.8153 130.66 12.5372 130.542 10.6016H132.934C132.993 11.1501 133.383 11.863 134.571 11.863C135.563 11.863 135.797 11.3698 135.797 10.9857C135.797 10.3114 135.116 10.1102 134.453 9.96257C133.305 9.72607 130.833 9.2883 130.833 7.20677C130.833 5.41709 132.664 4.50464 134.551 4.50464C136.731 4.50464 138.171 5.74584 138.289 7.28057H135.894C135.817 6.97027 135.506 6.44024 134.512 6.44024L134.513 6.43856Z" fill="#6C513C"/>
<path id="Vector_12" d="M96.5711 9.17829C96.5711 6.25644 98.9854 4.50366 101.593 4.50366C104.2 4.50366 106.518 6.27657 106.518 9.14139C106.518 12.0062 104.143 13.816 101.514 13.816C98.8852 13.816 96.5693 12.0431 96.5693 9.17829H96.5711ZM103.969 9.15984C103.969 7.73582 103.073 6.62209 101.595 6.62209C100.116 6.62209 99.1231 7.73582 99.1231 9.15984C99.1231 10.5839 100.116 11.6976 101.595 11.6976C103.073 11.6976 103.969 10.5839 103.969 9.15984Z" fill="#6C513C"/>
<path id="Vector_13" d="M96.5705 15.0476V17.4746H106.519V15.0476H96.5705Z" fill="#6C513C"/>
<path id="Vector_14" d="M88.7548 10.9368L90.9902 7.93609H88.1843L87.2258 9.19575L85.4964 7.2266C86.8717 6.84417 87.9429 5.72206 87.9429 4.09005C87.9429 2.07729 86.328 0.831055 84.4825 0.831055C82.737 0.831055 81.1186 1.94981 80.9684 3.83007C80.9612 3.92399 80.9541 4.01792 80.9541 4.11521C80.9541 4.46912 81.0059 4.79787 81.0989 5.10146C81.1114 5.14171 81.124 5.18197 81.1383 5.22055C81.1526 5.26248 81.1705 5.30273 81.1866 5.34299C81.419 5.89818 81.8071 6.37956 82.3043 6.73515L82.2238 6.78882C80.938 7.59225 79.9258 8.52147 79.9258 10.1116C79.9258 12.3759 81.9502 13.7999 84.3448 13.7999C85.7057 13.7999 86.6374 13.3454 87.3778 12.6158C87.3778 12.6158 87.3813 12.6141 87.3813 12.6124L87.5208 12.7684L88.347 13.7077H91.1923L88.7566 10.9351L88.7548 10.9368ZM84.4699 2.93271C85.1477 2.93271 85.5572 3.44261 85.5572 4.09508C85.5572 4.74755 85.1477 5.25745 84.4699 5.25745C83.7922 5.25745 83.3379 4.74755 83.3379 4.09508C83.3379 3.44261 83.7922 2.93271 84.4699 2.93271ZM85.3355 11.2655C84.5379 11.8107 83.4202 11.6463 82.8372 10.8982C82.256 10.1501 82.4312 9.10182 83.2288 8.55502L83.5633 8.30846L85.8273 10.863L85.3373 11.2639L85.3355 11.2655Z" fill="#6C513C"/>
</g>
</svg>
