<svg width="18" height="19" viewBox="0 0 18 19" fill="none" xmlns="http://www.w3.org/2000/svg">
<path fill-rule="evenodd" clip-rule="evenodd" d="M10.3447 10.9658C10.6376 10.6729 11.1124 10.6729 11.4053 10.9658L15.5303 15.0908C15.8232 15.3837 15.8232 15.8585 15.5303 16.1514C15.2374 16.4443 14.7626 16.4443 14.4697 16.1514L10.3447 12.0264C10.0518 11.7335 10.0518 11.2587 10.3447 10.9658Z" fill="white"/>
<path fill-rule="evenodd" clip-rule="evenodd" d="M7.5 4.37109C5.42893 4.37109 3.75 6.05003 3.75 8.12109C3.75 10.1922 5.42893 11.8711 7.5 11.8711C9.57107 11.8711 11.25 10.1922 11.25 8.12109C11.25 6.05003 9.57107 4.37109 7.5 4.37109ZM2.25 8.12109C2.25 5.2216 4.60051 2.87109 7.5 2.87109C10.3995 2.87109 12.75 5.2216 12.75 8.12109C12.75 11.0206 10.3995 13.3711 7.5 13.3711C4.60051 13.3711 2.25 11.0206 2.25 8.12109Z" fill="white"/>
</svg>
