<svg width="18" height="19" viewBox="0 0 18 19" fill="none" xmlns="http://www.w3.org/2000/svg">
<path fill-rule="evenodd" clip-rule="evenodd" d="M8.25 14.8711C8.25 15.6995 7.57843 16.3711 6.75 16.3711C5.92157 16.3711 5.25 15.6995 5.25 14.8711C5.25 14.0427 5.92157 13.3711 6.75 13.3711C7.57843 13.3711 8.25 14.0427 8.25 14.8711ZM14.25 14.8711C14.25 15.6995 13.5784 16.3711 12.75 16.3711C11.9216 16.3711 11.25 15.6995 11.25 14.8711C11.25 14.0427 11.9216 13.3711 12.75 13.3711C13.5784 13.3711 14.25 14.0427 14.25 14.8711Z" fill="white"/>
<path fill-rule="evenodd" clip-rule="evenodd" d="M2.25 3.62109C2.25 3.20688 2.58579 2.87109 3 2.87109H3.27029C4.34283 2.87109 5.26626 3.62813 5.4766 4.67983L5.56485 5.12109H13.8726C15.1163 5.12109 16.0154 6.30973 15.6769 7.50643L14.9055 10.2335C14.6315 11.2023 13.7472 11.8711 12.7404 11.8711H7.22971C6.15717 11.8711 5.23374 11.1141 5.0234 10.0624L4.00573 4.97401C3.93562 4.62344 3.6278 4.37109 3.27029 4.37109H3C2.58579 4.37109 2.25 4.03531 2.25 3.62109ZM5.86485 6.62109L6.49427 9.76818C6.56438 10.1187 6.8722 10.3711 7.22971 10.3711H12.7404C13.076 10.3711 13.3708 10.1482 13.4621 9.82523L14.2335 7.09816C14.3012 6.85882 14.1214 6.62109 13.8726 6.62109H5.86485Z" fill="white"/>
<circle cx="14" cy="4.62109" r="4" fill="#F1873F"/>
</svg>
