<svg width="17" height="19" viewBox="0 0 17 19" fill="none" xmlns="http://www.w3.org/2000/svg">
<path fill-rule="evenodd" clip-rule="evenodd" d="M5.75114 12.6211C4.48357 12.6211 3.456 13.6285 3.456 14.8711C3.456 15.2853 3.79852 15.6211 4.22104 15.6211H11.8715C12.294 15.6211 12.6366 15.2853 12.6366 14.8711C12.6366 13.6285 11.609 12.6211 10.3414 12.6211H5.75114ZM1.9259 14.8711C1.9259 12.8 3.63852 11.1211 5.75114 11.1211H10.3414C12.454 11.1211 14.1666 12.8 14.1666 14.8711C14.1666 16.1137 13.1391 17.1211 11.8715 17.1211H4.22104C2.95347 17.1211 1.9259 16.1137 1.9259 14.8711Z" fill="white"/>
<path fill-rule="evenodd" clip-rule="evenodd" d="M8.04627 3.62109C6.7787 3.62109 5.75113 4.62845 5.75113 5.87109C5.75113 7.11374 6.7787 8.12109 8.04627 8.12109C9.31384 8.12109 10.3414 7.11374 10.3414 5.87109C10.3414 4.62845 9.31384 3.62109 8.04627 3.62109ZM4.22104 5.87109C4.22104 3.80003 5.93365 2.12109 8.04627 2.12109C10.1589 2.12109 11.8715 3.80003 11.8715 5.87109C11.8715 7.94216 10.1589 9.62109 8.04627 9.62109C5.93365 9.62109 4.22104 7.94216 4.22104 5.87109Z" fill="white"/>
</svg>
