<svg width="132" height="24" viewBox="0 0 132 24" fill="none" xmlns="http://www.w3.org/2000/svg">
<path d="M1.04482 20.7786V9.6388L0 9.85953V7.94649L6.57793 6.1806V10.0361H6.63679C7.03411 8.91773 7.65217 6.1806 9.18261 6.1806C10.1686 6.1806 10.6836 6.37191 11.596 6.82809L11.9933 6.1806L13.7886 6.79866L11.8314 12.3318C10.9779 12.008 10.1244 11.6843 9.18261 11.6107C8.59398 11.6107 7.68161 11.802 7.0194 12.8174V20.7639H8.62341V22.7211H1.04482V20.7639V20.7786ZM28.9017 20.0575C26.6796 22.2943 23.8395 23.6482 20.2488 23.1331C15.3632 22.4415 12.8174 18.586 13.5385 13.4355C14.1712 8.93244 18.1003 5.6214 22.6622 6.25418C27.0328 6.87224 29.0635 10.095 29.6375 14.2007L19.9692 16.2756C20.4548 18.2328 21.6468 19.41 23.6482 19.7043C25.1639 19.9104 26.6943 19.6013 27.8421 18.5418L28.887 20.0428L28.9017 20.0575ZM23.7512 12.7585C23.4863 11.3017 23.0742 8.82943 21.3231 8.59398C20.0575 8.41739 19.3953 9.34448 19.204 10.713C19.0274 11.9786 19.2629 12.8615 19.3365 13.7739L23.7365 12.7732L23.7512 12.7585ZM47.8261 0V20.7786H48.9003V22.7358H42.396L41.9104 20.9993C40.792 22.1766 39.0261 23.2214 37.3632 23.2214C33.4047 23.2214 30.9177 19.7191 30.9177 15.7311C30.9177 10.1097 34.2876 6.1806 38.511 6.1806C39.6294 6.1806 40.8067 6.31304 41.8515 6.66622V1.89833L47.8408 0H47.8261ZM41.8368 9.75652C41.307 8.90301 40.3946 8.41739 39.5117 8.41739C37.2161 8.41739 36.8923 10.7719 36.8923 13.715C36.8923 16.3933 37.2161 19.1746 40.2328 19.1746C40.7625 19.1746 41.2776 19.1157 41.8368 18.9097V9.75652ZM64.6756 0V8.25552C66.5445 6.91639 67.4274 6.19532 69.3552 6.19532C72.7251 6.19532 74.7264 9.2709 74.7264 12.5672C74.7264 19.4689 69.1344 23.2361 64.2635 23.2361C62.2033 23.2361 60.1726 22.5886 58.701 21.4997V1.89833L64.6903 0H64.6756ZM64.6756 17.806C64.6756 19.1157 65.3967 20.0575 66.7946 20.0575C68.9137 20.0575 69.208 17.703 69.208 16.0696C69.208 14.0682 68.59 10.2127 65.897 10.2127C65.5438 10.2127 65.1171 10.2716 64.6609 10.4776V17.806H64.6756ZM85.3365 21.2054C83.9973 22.3532 82.5552 23.2361 80.6863 23.2361C77.7137 23.2361 75.4916 21.3084 75.4916 18.2622C75.4916 14.4656 77.8462 12.3023 80.7599 12.3023H85.2482V11.4783C85.2482 10.1391 84.5271 9.31505 83.0849 9.31505C81.1866 9.31505 80.3331 10.6836 79.4502 11.8314L77.4194 11.0809L79.509 5.38595L81.4662 6.03344L81.1719 6.91639C82.3786 6.38662 83.7913 6.16589 85.1304 6.16589C88.7946 6.16589 91.208 7.74047 91.208 11.596V20.7492H92.2528V22.7064H85.6749L85.3217 21.1759L85.3365 21.2054ZM85.2334 14.2742H84.2916C82.6582 14.2742 81.4809 15.4221 81.4809 17.0849C81.4809 18.3652 81.8341 19.8074 83.4381 19.8074C84.9391 19.8074 85.2334 18.6595 85.2334 17.4234V14.289V14.2742ZM105.188 20.7786V11.5518C105.188 10.61 104.334 10.1097 103.452 10.1097C102.333 10.1097 101.553 10.7572 100.773 11.4488V20.7786H102.054V22.7358H94.7987V9.75652L93.6508 10.0803V8.15251L100.847 6.19532V8.84415C102.51 7.53445 104.187 6.19532 106.439 6.19532C110.589 6.19532 111.177 9.03545 111.177 10.8455V20.7933H112.296V22.7505H105.203V20.7933L105.188 20.7786ZM113.753 0.735786L114.738 20.7786V1.89833L120.728 0V16.0107L124.583 13.4207L130.47 20.7786H132V22.7358H124.613C124.348 22.2502 123.965 21.588 123.789 21.3672L120.772 17.1732H120.713V20.7786H121.92V22.7358H114.724V20.7786L113.753 0.735786ZM129.675 10.8896C130.293 10.4629 130.661 9.85953 130.793 9.09431C130.926 8.3291 130.764 7.63746 130.337 7.0194C129.91 6.40134 129.307 6.03345 128.542 5.901C127.026 5.60669 125.864 6.29833 125.054 7.99064C124.775 8.56455 124.583 9.12375 124.51 9.66823C124.436 10.2127 124.392 10.6836 124.421 11.0957C124.451 11.596 124.524 12.0669 124.657 12.5084C124.804 12.2288 125.01 11.9786 125.275 11.7873C125.51 11.6254 125.819 11.4783 126.187 11.3753C126.555 11.2575 127.026 11.2575 127.585 11.3458C128.35 11.4783 129.042 11.3311 129.66 10.8896H129.675Z" fill="white"/>
</svg>
